<?xml version="1.0" encoding="UTF-8" standalone="no"?>
<svg
   xmlns:dc="http://purl.org/dc/elements/1.1/"
   xmlns:cc="http://creativecommons.org/ns#"
   xmlns:rdf="http://www.w3.org/1999/02/22-rdf-syntax-ns#"
   xmlns:svg="http://www.w3.org/2000/svg"
   xmlns="http://www.w3.org/2000/svg"
   xmlns:sodipodi="http://sodipodi.sourceforge.net/DTD/sodipodi-0.dtd"
   xmlns:inkscape="http://www.inkscape.org/namespaces/inkscape"
   version="1.1"
   id="Layer_1"
   x="0px"
   y="0px"
   width="288px"
   height="288px"
   viewBox="0 0 288 288"
   enable-background="new 0 0 288 288"
   xml:space="preserve"
   inkscape:version="0.91 r13725"
   sodipodi:docname="descarga.svg"><metadata
     id="metadata15"><rdf:RDF><cc:Work
         rdf:about=""><dc:format>image/svg+xml</dc:format><dc:type
           rdf:resource="http://purl.org/dc/dcmitype/StillImage" /></cc:Work></rdf:RDF></metadata><defs
     id="defs13" /><sodipodi:namedview
     pagecolor="#ffffff"
     bordercolor="#666666"
     borderopacity="1"
     objecttolerance="10"
     gridtolerance="10"
     guidetolerance="10"
     inkscape:pageopacity="0"
     inkscape:pageshadow="2"
     inkscape:window-width="1082"
     inkscape:window-height="577"
     id="namedview11"
     showgrid="false"
     inkscape:zoom="0.81944444"
     inkscape:cx="177.21412"
     inkscape:cy="144"
     inkscape:window-x="0"
     inkscape:window-y="0"
     inkscape:window-maximized="0"
     inkscape:current-layer="Layer_1" /><circle
     cx="146.49968"
     cy="141.55933"
     id="circle3"
     r="95.210335"
     style="fill:none;stroke:#898989;stroke-width:12.20645237" /><g
     id="g5"
     transform="matrix(0.81376353,0,0,0.81376353,29.269719,24.377374)"
     style="fill:#898989"><path
       d="m 144.057,198.576 c -2.407,0 -4.82,-0.892 -6.694,-2.675 L 86.81,147.771 c -2.878,-2.737 -3.797,-6.951 -2.321,-10.642 1.474,-3.685 5.045,-6.103 9.016,-6.103 l 18.604,0 0,-54.011 c 0,-5.366 4.348,-9.711 9.711,-9.711 l 44.475,0 c 5.365,0 9.713,4.345 9.713,9.711 l 0,54.012 18.603,0 c 3.972,0 7.544,2.418 9.019,6.103 1.475,3.691 0.556,7.905 -2.321,10.642 l -50.555,48.13 c -1.877,1.783 -4.29,2.674 -6.697,2.674 l 0,0 z"
       id="path7"
       inkscape:connector-curvature="0" /><path
       d="m 178.219,213.991 c 0,3.054 -2.477,5.529 -5.53,5.529 l -57.261,0 c -3.054,0 -5.53,-2.476 -5.53,-5.529 l 0,0 c 0,-3.055 2.476,-5.53 5.53,-5.53 l 57.261,0 c 3.053,0 5.53,2.476 5.53,5.53 l 0,0 z"
       id="path9"
       inkscape:connector-curvature="0" /></g></svg>