<?xml version="1.0" encoding="iso-8859-1"?>
<!-- Generator: Adobe Illustrator 19.0.0, SVG Export Plug-In . SVG Version: 6.00 Build 0)  -->
<svg xmlns="http://www.w3.org/2000/svg" xmlns:xlink="http://www.w3.org/1999/xlink" version="1.1" id="Layer_1" x="0px" y="0px" viewBox="0 0 454.479 454.479" style="enable-background:new 0 0 454.479 454.479;" xml:space="preserve" width="512" height="512">
<g>
	<rect x="9.186" y="392.386" style="fill:#3B9DFF;" width="228.252" height="25.499"/>
	<rect x="218.727" y="394.886" style="fill:#B3B3B3;" width="228.252" height="25.499"/>
	<path style="fill:#FFD039;" d="M181.813,34.099c27.75,0,50.25,22.49,50.25,50.24s-22.5,50.25-50.25,50.25s-50.25-22.5-50.25-50.25   S154.063,34.099,181.813,34.099z"/>
	<polygon style="fill:#CCCCCC;" points="407.423,357.219 413.623,391.219 262.623,391.219 268.823,357.219 298.973,357.219    377.273,357.219  "/>
	<polygon style="fill:#B3B3B3;" points="407.423,357.219 377.273,357.219 358.756,357.219 364.956,391.219 413.623,391.219  "/>
	<polygon style="fill:#CCCCCC;" points="390.423,167.409 390.423,210.219 377.273,210.219 357.903,210.219 357.903,167.409    372.093,167.409  "/>
	<rect x="318.343" y="167.409" style="fill:#E6E6E6;" width="39.56" height="42.81"/>
	<polygon style="fill:#F2F2F2;" points="318.343,167.409 318.343,210.219 298.973,210.219 285.823,210.219 285.823,167.409    304.153,167.409  "/>
	<path style="fill:#ED2E2E;" d="M370.893,146.219c0.78,2.86,1.2,5.87,1.2,8.97v12.22h-14.19h-39.56h-14.19v-12.22   c0-3.1,0.42-6.11,1.2-8.97c3.93-14.41,17.11-25,32.77-25S366.963,131.809,370.893,146.219z"/>
	<path style="fill:#D82525;" d="M370.893,146.219c-3.93-14.41-17.11-25-32.77-25c-4.351,0-8.51,0.82-12.333,2.31   c9.936,3.872,17.599,12.284,20.437,22.69c0.78,2.86,1.2,5.87,1.2,8.97v12.22h10.477h14.19v-12.22   C372.093,152.089,371.673,149.079,370.893,146.219z"/>
	<polygon style="fill:#E6E6E6;" points="377.273,220.349 377.273,256.009 373.913,257.029 348.573,264.759 298.973,279.879    298.973,244.219 348.573,229.099 373.913,221.369  "/>
	<polygon style="fill:#E6E6E6;" points="377.273,291.679 377.273,327.349 373.913,328.369 348.573,336.099 298.973,351.219    298.973,315.549 348.573,300.429 373.913,292.699  "/>
	<polygon style="fill:#ED2E2E;" points="377.273,327.349 377.273,357.219 298.973,357.219 298.973,351.219 348.573,336.099    373.913,328.369  "/>
	<polygon style="fill:#ED2E2E;" points="377.273,256.009 377.273,291.679 373.913,292.699 348.573,300.429 298.973,315.549    298.973,279.879 348.573,264.759 373.913,257.029  "/>
	<polygon style="fill:#ED2E2E;" points="377.273,210.219 377.273,220.349 298.973,244.219 298.973,210.219 318.343,210.219    357.903,210.219  "/>
	<polygon style="fill:#D82525;" points="375.413,328.369 375.413,356.179 350.073,356.179 350.073,336.099  "/>
	<polygon style="fill:#CCCCCC;" points="375.413,221.369 375.413,257.029 350.073,264.759 350.073,229.099  "/>
	<polygon style="fill:#D82525;" points="375.413,257.029 375.413,292.699 350.073,300.429 350.073,264.759  "/>
	<polygon style="fill:#CCCCCC;" points="375.413,292.699 375.413,328.369 350.073,336.099 350.073,300.429  "/>
	<g>
		<path style="fill:#333333;" d="M216.9,384.386c-4.143,0-7.5,3.358-7.5,7.5s3.357,7.5,7.5,7.5h230.079c4.143,0,7.5-3.358,7.5-7.5    s-3.357-7.5-7.5-7.5h-27.103l-5.08-27.846c-0.649-3.564-3.755-6.154-7.378-6.154h-22.646v-132h5.648c4.143,0,7.5-3.358,7.5-7.5    v-42.809c0-4.142-3.357-7.5-7.5-7.5H379.59v-4.722c0-20.304-14.672-37.235-33.969-40.777v-12.192c0-4.142-3.357-7.5-7.5-7.5    s-7.5,3.358-7.5,7.5v12.192c-19.297,3.541-33.97,20.472-33.97,40.777v4.722H285.82c-4.143,0-7.5,3.358-7.5,7.5v42.809    c0,4.142,3.357,7.5,7.5,7.5h5.648v132h-22.646c-3.623,0-6.729,2.59-7.378,6.154l-5.08,27.846H216.9z M306.469,250.442    l63.305-19.299v19.985l-63.305,19.299V250.442z M325.841,175.578h24.56v27.809h-24.56V175.578z M306.469,286.108l63.305-19.299    v19.985l-63.305,19.299V286.108z M306.469,321.775l63.305-19.299v19.985l-63.305,19.299V321.775z M369.773,338.143v12.244h-40.162    L369.773,338.143z M382.922,203.386H365.4v-27.809h17.521V203.386z M311.651,155.855c0-0.493,0.016-0.982,0.043-1.469h11.427    c4.143,0,7.5-3.358,7.5-7.5s-3.357-7.5-7.5-7.5h-5.699c4.854-6.088,12.326-10,20.699-10c8.373,0,15.845,3.912,20.698,10h-5.698    c-4.143,0-7.5,3.358-7.5,7.5s3.357,7.5,7.5,7.5h11.426c0.027,0.487,0.043,0.976,0.043,1.469v4.722H357.9h-39.56h-6.689V155.855z     M293.32,175.578h17.521v27.809H293.32V175.578z M360.177,218.386l-53.708,16.373v-16.373H360.177z M275.079,365.386h23.89h78.305    h23.89l3.466,19H271.613L275.079,365.386z"/>
		<path style="fill:#333333;" d="M7.5,404.386c11.914,0,18.148-3.065,23.648-5.769c4.809-2.364,8.605-4.231,17.032-4.231    c8.433,0,12.231,1.867,17.042,4.232c5.501,2.704,11.735,5.768,23.647,5.768c11.915,0,18.149-3.066,23.65-5.771    c4.805-2.363,8.6-4.229,17.02-4.229c8.426,0,12.224,1.867,17.031,4.23c5.5,2.704,11.735,5.77,23.649,5.77    c11.925,0,18.155-3.066,23.651-5.771c3.717-1.829,5.247-6.324,3.418-10.041c-1.828-3.716-6.324-5.247-10.041-3.418    c-4.802,2.363-8.594,4.229-17.028,4.229c-8.427,0-12.224-1.867-17.032-4.231c-5.5-2.704-11.734-5.769-23.648-5.769    c-11.908,0-18.141,3.065-23.639,5.769c-4.808,2.364-8.604,4.231-17.031,4.231c-8.425,0-12.223-1.867-17.031-4.23    c-5.502-2.705-11.738-5.77-23.658-5.77c-11.914,0-18.149,3.065-23.649,5.77c-4.808,2.364-8.605,4.23-17.031,4.23    c-4.143,0-7.5,3.358-7.5,7.5S3.357,404.386,7.5,404.386z"/>
		<path style="fill:#333333;" d="M446.979,412.885H7.502c-4.143,0-7.5,3.358-7.5,7.5s3.357,7.5,7.5,7.5h439.478    c4.143,0,7.5-3.358,7.5-7.5S451.122,412.885,446.979,412.885z"/>
		<path style="fill:#333333;" d="M77.459,233.062c0,4.142,3.357,7.5,7.5,7.5c3.583,0,6.498,2.915,6.498,6.499    c0,4.142,3.357,7.5,7.5,7.5s7.5-3.358,7.5-7.5c0-3.583,2.915-6.499,6.499-6.499c4.143,0,7.5-3.358,7.5-7.5s-3.357-7.5-7.5-7.5    c-5.342,0-10.234,1.958-13.999,5.195c-3.764-3.237-8.656-5.195-13.998-5.195C80.816,225.562,77.459,228.92,77.459,233.062z"/>
		<path style="fill:#333333;" d="M33.901,156.718c10.752,0,19.499,8.747,19.499,19.499c0,4.142,3.357,7.5,7.5,7.5s7.5-3.358,7.5-7.5    c0-10.752,8.747-19.499,19.499-19.499c4.143,0,7.5-3.358,7.5-7.5s-3.357-7.5-7.5-7.5c-10.921,0-20.673,5.101-26.999,13.045    c-6.326-7.944-16.078-13.045-26.999-13.045c-4.143,0-7.5,3.358-7.5,7.5S29.759,156.718,33.901,156.718z"/>
		<path style="fill:#333333;" d="M181.815,142.089c31.842,0,57.747-25.905,57.747-57.747s-25.905-57.748-57.747-57.748    S124.068,52.5,124.068,84.342S149.974,142.089,181.815,142.089z M181.815,41.594c23.571,0,42.747,19.177,42.747,42.748    s-19.176,42.747-42.747,42.747s-42.747-19.176-42.747-42.747S158.244,41.594,181.815,41.594z"/>
	</g>
</g>















</svg>
